<svg xmlns="http://www.w3.org/2000/svg" width="103" height="20.693" viewBox="0 0 103 20.693">
  <path id="icon" d="M986.094,987.342a7.36,7.36,0,0,1,1.125-3.812,5.012,5.012,0,0,1,4.651-2.45,3.216,3.216,0,0,1,3.04,3.268,5.3,5.3,0,0,1-2.28,4.205c0-2-.821-3.237-3.04-3.237a2.254,2.254,0,0,0-2.4,2.027,1.211,1.211,0,0,1,1.307,1.18,2.524,2.524,0,0,0-1.307-.454,3.2,3.2,0,0,0,.821,2.178c.121-.6.365-1.089.851-1.089a1.3,1.3,0,0,1,1.125,1.331,1.174,1.174,0,0,1-1.155,1.3c-1.216,0-2.493-1.543-2.615-3.721h-.608a5.037,5.037,0,0,0,.243,1.815,2.852,2.852,0,0,1,.243.938A14.455,14.455,0,0,1,985,993.846a14.472,14.472,0,0,1-1.094-3.025,2.859,2.859,0,0,1,.243-.938,5.038,5.038,0,0,0,.243-1.815h-.608c-.122,2.178-1.4,3.721-2.615,3.721a1.174,1.174,0,0,1-1.155-1.3,1.3,1.3,0,0,1,1.125-1.331c.486,0,.729.484.851,1.089a3.2,3.2,0,0,0,.821-2.178,2.524,2.524,0,0,0-1.307.454,1.211,1.211,0,0,1,1.307-1.18,2.254,2.254,0,0,0-2.4-2.027c-2.219,0-3.04,1.24-3.04,3.237a5.3,5.3,0,0,1-2.28-4.205,3.215,3.215,0,0,1,3.04-3.268,5.012,5.012,0,0,1,4.651,2.45,7.359,7.359,0,0,1,1.125,3.812h.486a10.971,10.971,0,0,0-1.581-4.931,5.471,5.471,0,0,1-.79-2.3,6.539,6.539,0,0,1,1.034-3A44.1,44.1,0,0,0,985,973.153a44.1,44.1,0,0,0,1.946,3.963,6.536,6.536,0,0,1,1.034,3,5.468,5.468,0,0,1-.79,2.3,10.966,10.966,0,0,0-1.581,4.931Z" transform="translate(-934 -973.153)" fill="#f5ab73"/>
  <rect id="line" width="103" height="1" transform="translate(0 11.847)" fill="#f5ab73"/>
</svg>
